<svg xmlns="http://www.w3.org/2000/svg" width="1800" height="800" viewBox="0 0 64 64"><path d="M56 54H37v2c0 1.1-.9 2-2 2H23c-1.1 0-2-.9-2-2v-2H2c-1.1 0-2 .9-2 2v2c0 3.31 2.69 6 6 6h46c3.31 0 6-2.69 6-6v-2c0-1.1-.9-2-2-2zm-1.35-4c.23-.63.35-1.3.35-2V27.71c-.97.19-1.97.29-3 .29-8.82 0-16-7.18-16-16H9c-3.31 0-6 2.69-6 6v30c0 .7.12 1.37.35 2h51.3zM36.586 30.414a2 2 0 1 1 2.828-2.828l4 4a2 2 0 0 1 0 2.828l-4 4c-.391.391-.902.586-1.414.586s-1.023-.195-1.414-.586a2 2 0 0 1 0-2.828L39.172 33l-2.586-2.586zm-11.483 7.953 4-12a2 2 0 0 1 3.795 1.265l-4 12a2 2 0 0 1-3.795-1.265zm-10.517-6.781 4-4a2 2 0 1 1 2.828 2.828L18.828 33l2.586 2.586a2 2 0 1 1-2.828 2.828l-4-4a2 2 0 0 1 0-2.828zM33.02 8a2 2 0 0 0 0-4h-.01c-1.104 0-1.995.896-1.995 2s.9 2 2.005 2zm-8 0a2 2 0 0 0 0-4h-.01c-1.104 0-1.995.896-1.995 2s.9 2 2.005 2zM52 19.378c1.422-1.433 2.408-3.332 2.804-5.378h-5.609c.397 2.046 1.383 3.945 2.805 5.378zM54.804 10C54.408 7.954 53.422 6.055 52 4.622 50.578 6.055 49.592 7.954 49.196 10h5.608zm-1.636 13.624A1.998 1.998 0 0 1 52 24c5.944 0 10.866-4.327 11.82-10h-4.976c-.543 3.846-2.606 7.416-5.676 9.624zM58.844 10h4.976C62.866 4.328 57.947.003 52.005 0c.408.001.816.126 1.163.376 3.07 2.208 5.133 5.778 5.676 9.624zM50.832.376c.347-.25.755-.375 1.163-.376-5.942.003-10.861 4.328-11.815 10h4.976c.543-3.846 2.606-7.416 5.676-9.624z" fill="#999"/><path d="M45.156 14H40.18c.954 5.673 5.876 10 11.82 10-.409 0-.819-.125-1.168-.376-3.07-2.208-5.133-5.778-5.676-9.624z" fill="#999"/></svg>